<mxfile host="app.diagrams.net" agent="Mozilla/5.0 (Windows NT 10.0; Win64; x64) AppleWebKit/537.36 (KHTML, like Gecko) Chrome/129.0.0.0 Safari/537.36 Edg/129.0.0.0" version="24.7.17">
  <diagram name="第 1 页" id="2BYFjds1c9ZGeSYEWeda">
    <mxGraphModel dx="1042" dy="565" grid="1" gridSize="10" guides="1" tooltips="1" connect="1" arrows="1" fold="1" page="1" pageScale="1" pageWidth="1169" pageHeight="1654" math="0" shadow="0">
      <root>
        <mxCell id="0" />
        <mxCell id="1" parent="0" />
        <mxCell id="PwMZ97VUKHfbjgOmNJmN-2" value="" style="shape=or;whiteSpace=wrap;html=1;" vertex="1" parent="1">
          <mxGeometry x="440" y="160" width="60" height="80" as="geometry" />
        </mxCell>
        <mxCell id="PwMZ97VUKHfbjgOmNJmN-3" value="" style="shape=or;whiteSpace=wrap;html=1;" vertex="1" parent="1">
          <mxGeometry x="440" y="280" width="60" height="80" as="geometry" />
        </mxCell>
        <mxCell id="PwMZ97VUKHfbjgOmNJmN-4" value="" style="shape=xor;whiteSpace=wrap;html=1;" vertex="1" parent="1">
          <mxGeometry x="600" y="220" width="60" height="80" as="geometry" />
        </mxCell>
        <mxCell id="PwMZ97VUKHfbjgOmNJmN-5" value="" style="endArrow=none;html=1;rounded=0;" edge="1" parent="1">
          <mxGeometry width="50" height="50" relative="1" as="geometry">
            <mxPoint x="280" y="200" as="sourcePoint" />
            <mxPoint x="280" y="130" as="targetPoint" />
          </mxGeometry>
        </mxCell>
        <mxCell id="PwMZ97VUKHfbjgOmNJmN-6" value="" style="triangle;whiteSpace=wrap;html=1;" vertex="1" parent="1">
          <mxGeometry x="360" y="170" width="20" height="30" as="geometry" />
        </mxCell>
        <mxCell id="PwMZ97VUKHfbjgOmNJmN-7" value="" style="endArrow=none;html=1;rounded=0;entryX=0;entryY=0.5;entryDx=0;entryDy=0;" edge="1" parent="1" source="PwMZ97VUKHfbjgOmNJmN-9" target="PwMZ97VUKHfbjgOmNJmN-6">
          <mxGeometry width="50" height="50" relative="1" as="geometry">
            <mxPoint x="280" y="185" as="sourcePoint" />
            <mxPoint x="560" y="255" as="targetPoint" />
          </mxGeometry>
        </mxCell>
        <mxCell id="PwMZ97VUKHfbjgOmNJmN-8" value="" style="endArrow=classic;html=1;rounded=0;entryX=0;entryY=0.5;entryDx=0;entryDy=0;entryPerimeter=0;exitX=1;exitY=0.5;exitDx=0;exitDy=0;" edge="1" parent="1" source="PwMZ97VUKHfbjgOmNJmN-6">
          <mxGeometry width="50" height="50" relative="1" as="geometry">
            <mxPoint x="345" y="270" as="sourcePoint" />
            <mxPoint x="440" y="185" as="targetPoint" />
          </mxGeometry>
        </mxCell>
        <mxCell id="PwMZ97VUKHfbjgOmNJmN-10" value="" style="endArrow=none;html=1;rounded=0;entryDx=0;entryDy=0;" edge="1" parent="1" target="PwMZ97VUKHfbjgOmNJmN-9">
          <mxGeometry width="50" height="50" relative="1" as="geometry">
            <mxPoint x="280" y="185" as="sourcePoint" />
            <mxPoint x="360" y="185" as="targetPoint" />
          </mxGeometry>
        </mxCell>
        <mxCell id="PwMZ97VUKHfbjgOmNJmN-9" value="" style="shape=waypoint;sketch=0;fillStyle=solid;size=6;pointerEvents=1;points=[];fillColor=none;resizable=0;rotatable=0;perimeter=centerPerimeter;snapToPoint=1;" vertex="1" parent="1">
          <mxGeometry x="270" y="175" width="20" height="20" as="geometry" />
        </mxCell>
        <mxCell id="PwMZ97VUKHfbjgOmNJmN-12" value="" style="endArrow=none;html=1;rounded=0;entryX=0.96;entryY=1.04;entryDx=0;entryDy=0;entryPerimeter=0;" edge="1" parent="1" target="PwMZ97VUKHfbjgOmNJmN-9">
          <mxGeometry width="50" height="50" relative="1" as="geometry">
            <mxPoint x="280" y="300" as="sourcePoint" />
            <mxPoint x="560" y="270" as="targetPoint" />
          </mxGeometry>
        </mxCell>
        <mxCell id="PwMZ97VUKHfbjgOmNJmN-13" value="" style="endArrow=classic;html=1;rounded=0;entryX=0;entryY=0.5;entryDx=0;entryDy=0;entryPerimeter=0;" edge="1" parent="1">
          <mxGeometry width="50" height="50" relative="1" as="geometry">
            <mxPoint x="280" y="300" as="sourcePoint" />
            <mxPoint x="440" y="300" as="targetPoint" />
          </mxGeometry>
        </mxCell>
        <mxCell id="PwMZ97VUKHfbjgOmNJmN-14" value="" style="endArrow=classic;html=1;rounded=0;entryX=0;entryY=0.75;entryDx=0;entryDy=0;entryPerimeter=0;" edge="1" parent="1" target="PwMZ97VUKHfbjgOmNJmN-2">
          <mxGeometry width="50" height="50" relative="1" as="geometry">
            <mxPoint x="360" y="220" as="sourcePoint" />
            <mxPoint x="560" y="270" as="targetPoint" />
          </mxGeometry>
        </mxCell>
        <mxCell id="PwMZ97VUKHfbjgOmNJmN-15" value="&lt;font style=&quot;font-size: 16px;&quot;&gt;A&lt;/font&gt;" style="text;html=1;align=center;verticalAlign=middle;whiteSpace=wrap;rounded=0;" vertex="1" parent="1">
          <mxGeometry x="250" y="103" width="60" height="30" as="geometry" />
        </mxCell>
        <mxCell id="PwMZ97VUKHfbjgOmNJmN-16" value="&lt;font style=&quot;font-size: 16px;&quot;&gt;i1&lt;/font&gt;" style="text;html=1;align=center;verticalAlign=middle;whiteSpace=wrap;rounded=0;" vertex="1" parent="1">
          <mxGeometry x="310" y="204" width="60" height="30" as="geometry" />
        </mxCell>
        <mxCell id="PwMZ97VUKHfbjgOmNJmN-17" value="&lt;font style=&quot;font-size: 16px;&quot;&gt;i2&lt;/font&gt;" style="text;html=1;align=center;verticalAlign=middle;whiteSpace=wrap;rounded=0;" vertex="1" parent="1">
          <mxGeometry x="310" y="320" width="60" height="30" as="geometry" />
        </mxCell>
        <mxCell id="PwMZ97VUKHfbjgOmNJmN-18" value="" style="endArrow=classic;html=1;rounded=0;entryX=0;entryY=0.75;entryDx=0;entryDy=0;entryPerimeter=0;" edge="1" parent="1">
          <mxGeometry width="50" height="50" relative="1" as="geometry">
            <mxPoint x="360" y="336" as="sourcePoint" />
            <mxPoint x="440" y="336" as="targetPoint" />
          </mxGeometry>
        </mxCell>
        <mxCell id="PwMZ97VUKHfbjgOmNJmN-20" value="" style="endArrow=none;html=1;rounded=0;exitX=1;exitY=0.5;exitDx=0;exitDy=0;exitPerimeter=0;" edge="1" parent="1" source="PwMZ97VUKHfbjgOmNJmN-2">
          <mxGeometry width="50" height="50" relative="1" as="geometry">
            <mxPoint x="540" y="200" as="sourcePoint" />
            <mxPoint x="530" y="200" as="targetPoint" />
          </mxGeometry>
        </mxCell>
        <mxCell id="PwMZ97VUKHfbjgOmNJmN-21" value="" style="endArrow=none;html=1;rounded=0;exitX=1;exitY=0.5;exitDx=0;exitDy=0;exitPerimeter=0;" edge="1" parent="1">
          <mxGeometry width="50" height="50" relative="1" as="geometry">
            <mxPoint x="500" y="319" as="sourcePoint" />
            <mxPoint x="530" y="319" as="targetPoint" />
          </mxGeometry>
        </mxCell>
        <mxCell id="PwMZ97VUKHfbjgOmNJmN-22" value="" style="endArrow=none;html=1;rounded=0;" edge="1" parent="1">
          <mxGeometry width="50" height="50" relative="1" as="geometry">
            <mxPoint x="530" y="250" as="sourcePoint" />
            <mxPoint x="530" y="200" as="targetPoint" />
          </mxGeometry>
        </mxCell>
        <mxCell id="PwMZ97VUKHfbjgOmNJmN-23" value="" style="endArrow=none;html=1;rounded=0;" edge="1" parent="1">
          <mxGeometry width="50" height="50" relative="1" as="geometry">
            <mxPoint x="530" y="320" as="sourcePoint" />
            <mxPoint x="530" y="270" as="targetPoint" />
          </mxGeometry>
        </mxCell>
        <mxCell id="PwMZ97VUKHfbjgOmNJmN-24" value="" style="endArrow=classic;html=1;rounded=0;entryX=0.287;entryY=0.385;entryDx=0;entryDy=0;entryPerimeter=0;" edge="1" parent="1" target="PwMZ97VUKHfbjgOmNJmN-4">
          <mxGeometry width="50" height="50" relative="1" as="geometry">
            <mxPoint x="530" y="250" as="sourcePoint" />
            <mxPoint x="560" y="260" as="targetPoint" />
          </mxGeometry>
        </mxCell>
        <mxCell id="PwMZ97VUKHfbjgOmNJmN-25" value="" style="endArrow=classic;html=1;rounded=0;entryX=0.287;entryY=0.385;entryDx=0;entryDy=0;entryPerimeter=0;" edge="1" parent="1">
          <mxGeometry width="50" height="50" relative="1" as="geometry">
            <mxPoint x="530" y="270" as="sourcePoint" />
            <mxPoint x="617" y="271" as="targetPoint" />
          </mxGeometry>
        </mxCell>
        <mxCell id="PwMZ97VUKHfbjgOmNJmN-26" value="" style="endArrow=classic;html=1;rounded=0;exitX=1;exitY=0.5;exitDx=0;exitDy=0;exitPerimeter=0;entryX=0;entryY=0.5;entryDx=0;entryDy=0;" edge="1" parent="1" source="PwMZ97VUKHfbjgOmNJmN-4" target="PwMZ97VUKHfbjgOmNJmN-27">
          <mxGeometry width="50" height="50" relative="1" as="geometry">
            <mxPoint x="730" y="260" as="sourcePoint" />
            <mxPoint x="680" y="220" as="targetPoint" />
          </mxGeometry>
        </mxCell>
        <mxCell id="PwMZ97VUKHfbjgOmNJmN-27" value="&lt;font style=&quot;font-size: 16px;&quot;&gt;Y&lt;/font&gt;" style="text;html=1;align=center;verticalAlign=middle;whiteSpace=wrap;rounded=0;" vertex="1" parent="1">
          <mxGeometry x="677" y="245" width="60" height="30" as="geometry" />
        </mxCell>
        <mxCell id="PwMZ97VUKHfbjgOmNJmN-28" value="andA1" style="text;html=1;align=center;verticalAlign=middle;whiteSpace=wrap;rounded=0;" vertex="1" parent="1">
          <mxGeometry x="530" y="220" width="60" height="30" as="geometry" />
        </mxCell>
        <mxCell id="PwMZ97VUKHfbjgOmNJmN-29" value="andA2" style="text;html=1;align=center;verticalAlign=middle;whiteSpace=wrap;rounded=0;" vertex="1" parent="1">
          <mxGeometry x="530" y="270" width="60" height="30" as="geometry" />
        </mxCell>
        <mxCell id="PwMZ97VUKHfbjgOmNJmN-30" value="" style="verticalLabelPosition=middle;verticalAlign=middle;html=1;shape=trapezoid;perimeter=trapezoidPerimeter;whiteSpace=wrap;size=0.23;arcSize=10;flipV=1;labelPosition=center;align=center;direction=south;" vertex="1" parent="1">
          <mxGeometry x="480" y="670" width="60" height="100" as="geometry" />
        </mxCell>
        <mxCell id="PwMZ97VUKHfbjgOmNJmN-31" value="" style="verticalLabelPosition=middle;verticalAlign=middle;html=1;shape=trapezoid;perimeter=trapezoidPerimeter;whiteSpace=wrap;size=0.23;arcSize=10;flipV=1;labelPosition=center;align=center;direction=south;" vertex="1" parent="1">
          <mxGeometry x="480" y="820" width="60" height="100" as="geometry" />
        </mxCell>
        <mxCell id="PwMZ97VUKHfbjgOmNJmN-32" value="" style="endArrow=none;html=1;rounded=0;exitX=0;exitY=0.5;exitDx=0;exitDy=0;" edge="1" parent="1">
          <mxGeometry width="50" height="50" relative="1" as="geometry">
            <mxPoint x="514" y="682.5" as="sourcePoint" />
            <mxPoint x="514" y="651" as="targetPoint" />
          </mxGeometry>
        </mxCell>
        <mxCell id="PwMZ97VUKHfbjgOmNJmN-33" value="S1" style="text;html=1;align=center;verticalAlign=middle;whiteSpace=wrap;rounded=0;" vertex="1" parent="1">
          <mxGeometry x="484" y="626" width="60" height="30" as="geometry" />
        </mxCell>
        <mxCell id="PwMZ97VUKHfbjgOmNJmN-34" value="" style="endArrow=none;html=1;rounded=0;exitX=0;exitY=0.5;exitDx=0;exitDy=0;" edge="1" parent="1">
          <mxGeometry width="50" height="50" relative="1" as="geometry">
            <mxPoint x="515.5" y="938.5" as="sourcePoint" />
            <mxPoint x="515.5" y="907" as="targetPoint" />
          </mxGeometry>
        </mxCell>
        <mxCell id="PwMZ97VUKHfbjgOmNJmN-35" value="S1" style="text;html=1;align=center;verticalAlign=middle;whiteSpace=wrap;rounded=0;" vertex="1" parent="1">
          <mxGeometry x="485" y="933" width="60" height="30" as="geometry" />
        </mxCell>
        <mxCell id="PwMZ97VUKHfbjgOmNJmN-36" value="" style="endArrow=classic;html=1;rounded=0;" edge="1" parent="1">
          <mxGeometry width="50" height="50" relative="1" as="geometry">
            <mxPoint x="421" y="702" as="sourcePoint" />
            <mxPoint x="481" y="702" as="targetPoint" />
          </mxGeometry>
        </mxCell>
        <mxCell id="PwMZ97VUKHfbjgOmNJmN-37" value="" style="endArrow=classic;html=1;rounded=0;" edge="1" parent="1">
          <mxGeometry width="50" height="50" relative="1" as="geometry">
            <mxPoint x="420" y="740" as="sourcePoint" />
            <mxPoint x="480" y="740" as="targetPoint" />
          </mxGeometry>
        </mxCell>
        <mxCell id="PwMZ97VUKHfbjgOmNJmN-38" value="" style="endArrow=classic;html=1;rounded=0;" edge="1" parent="1">
          <mxGeometry width="50" height="50" relative="1" as="geometry">
            <mxPoint x="420" y="850" as="sourcePoint" />
            <mxPoint x="480" y="850" as="targetPoint" />
          </mxGeometry>
        </mxCell>
        <mxCell id="PwMZ97VUKHfbjgOmNJmN-39" value="" style="endArrow=classic;html=1;rounded=0;" edge="1" parent="1">
          <mxGeometry width="50" height="50" relative="1" as="geometry">
            <mxPoint x="420" y="890" as="sourcePoint" />
            <mxPoint x="480" y="890" as="targetPoint" />
          </mxGeometry>
        </mxCell>
        <mxCell id="PwMZ97VUKHfbjgOmNJmN-40" value="D0" style="text;html=1;align=center;verticalAlign=middle;whiteSpace=wrap;rounded=0;" vertex="1" parent="1">
          <mxGeometry x="373" y="687" width="60" height="30" as="geometry" />
        </mxCell>
        <mxCell id="PwMZ97VUKHfbjgOmNJmN-42" value="D1" style="text;html=1;align=center;verticalAlign=middle;whiteSpace=wrap;rounded=0;" vertex="1" parent="1">
          <mxGeometry x="373" y="725" width="60" height="30" as="geometry" />
        </mxCell>
        <mxCell id="PwMZ97VUKHfbjgOmNJmN-43" value="D2" style="text;html=1;align=center;verticalAlign=middle;whiteSpace=wrap;rounded=0;" vertex="1" parent="1">
          <mxGeometry x="376" y="835" width="60" height="30" as="geometry" />
        </mxCell>
        <mxCell id="PwMZ97VUKHfbjgOmNJmN-44" value="D3" style="text;html=1;align=center;verticalAlign=middle;whiteSpace=wrap;rounded=0;" vertex="1" parent="1">
          <mxGeometry x="376" y="877" width="60" height="30" as="geometry" />
        </mxCell>
        <mxCell id="PwMZ97VUKHfbjgOmNJmN-45" value="" style="endArrow=none;html=1;rounded=0;exitX=0.5;exitY=0;exitDx=0;exitDy=0;" edge="1" parent="1" source="PwMZ97VUKHfbjgOmNJmN-30">
          <mxGeometry width="50" height="50" relative="1" as="geometry">
            <mxPoint x="605" y="727" as="sourcePoint" />
            <mxPoint x="640" y="720" as="targetPoint" />
          </mxGeometry>
        </mxCell>
        <mxCell id="PwMZ97VUKHfbjgOmNJmN-46" value="" style="endArrow=none;html=1;rounded=0;" edge="1" parent="1">
          <mxGeometry width="50" height="50" relative="1" as="geometry">
            <mxPoint x="640" y="771" as="sourcePoint" />
            <mxPoint x="640" y="721" as="targetPoint" />
          </mxGeometry>
        </mxCell>
        <mxCell id="PwMZ97VUKHfbjgOmNJmN-47" value="" style="endArrow=none;html=1;rounded=0;exitX=0.5;exitY=0;exitDx=0;exitDy=0;" edge="1" parent="1">
          <mxGeometry width="50" height="50" relative="1" as="geometry">
            <mxPoint x="540" y="869.5" as="sourcePoint" />
            <mxPoint x="640" y="869.5" as="targetPoint" />
          </mxGeometry>
        </mxCell>
        <mxCell id="PwMZ97VUKHfbjgOmNJmN-48" value="" style="endArrow=none;html=1;rounded=0;" edge="1" parent="1">
          <mxGeometry width="50" height="50" relative="1" as="geometry">
            <mxPoint x="640" y="869" as="sourcePoint" />
            <mxPoint x="640" y="820" as="targetPoint" />
          </mxGeometry>
        </mxCell>
        <mxCell id="PwMZ97VUKHfbjgOmNJmN-49" value="" style="endArrow=classic;html=1;rounded=0;" edge="1" parent="1">
          <mxGeometry width="50" height="50" relative="1" as="geometry">
            <mxPoint x="640" y="772" as="sourcePoint" />
            <mxPoint x="720" y="772" as="targetPoint" />
          </mxGeometry>
        </mxCell>
        <mxCell id="PwMZ97VUKHfbjgOmNJmN-50" value="" style="endArrow=classic;html=1;rounded=0;" edge="1" parent="1">
          <mxGeometry width="50" height="50" relative="1" as="geometry">
            <mxPoint x="639" y="819" as="sourcePoint" />
            <mxPoint x="719" y="819" as="targetPoint" />
          </mxGeometry>
        </mxCell>
        <mxCell id="PwMZ97VUKHfbjgOmNJmN-51" value="" style="verticalLabelPosition=middle;verticalAlign=middle;html=1;shape=trapezoid;perimeter=trapezoidPerimeter;whiteSpace=wrap;size=0.23;arcSize=10;flipV=1;labelPosition=center;align=center;direction=south;" vertex="1" parent="1">
          <mxGeometry x="720" y="750" width="60" height="100" as="geometry" />
        </mxCell>
        <mxCell id="PwMZ97VUKHfbjgOmNJmN-52" value="" style="endArrow=none;html=1;rounded=0;exitX=0;exitY=0.5;exitDx=0;exitDy=0;" edge="1" parent="1">
          <mxGeometry width="50" height="50" relative="1" as="geometry">
            <mxPoint x="760" y="865" as="sourcePoint" />
            <mxPoint x="760" y="833.5" as="targetPoint" />
          </mxGeometry>
        </mxCell>
        <mxCell id="PwMZ97VUKHfbjgOmNJmN-53" value="S0" style="text;html=1;align=center;verticalAlign=middle;whiteSpace=wrap;rounded=0;" vertex="1" parent="1">
          <mxGeometry x="731" y="861" width="60" height="30" as="geometry" />
        </mxCell>
        <mxCell id="PwMZ97VUKHfbjgOmNJmN-54" value="" style="endArrow=classic;html=1;rounded=0;exitX=0.5;exitY=0;exitDx=0;exitDy=0;" edge="1" parent="1" source="PwMZ97VUKHfbjgOmNJmN-51">
          <mxGeometry width="50" height="50" relative="1" as="geometry">
            <mxPoint x="830" y="790" as="sourcePoint" />
            <mxPoint x="820" y="800" as="targetPoint" />
          </mxGeometry>
        </mxCell>
        <mxCell id="PwMZ97VUKHfbjgOmNJmN-55" value="Y" style="text;html=1;align=center;verticalAlign=middle;whiteSpace=wrap;rounded=0;" vertex="1" parent="1">
          <mxGeometry x="806" y="785" width="60" height="30" as="geometry" />
        </mxCell>
        <mxCell id="PwMZ97VUKHfbjgOmNJmN-56" value="out1" style="text;html=1;align=center;verticalAlign=middle;whiteSpace=wrap;rounded=0;" vertex="1" parent="1">
          <mxGeometry x="650" y="747" width="60" height="30" as="geometry" />
        </mxCell>
        <mxCell id="PwMZ97VUKHfbjgOmNJmN-57" value="out2" style="text;html=1;align=center;verticalAlign=middle;whiteSpace=wrap;rounded=0;" vertex="1" parent="1">
          <mxGeometry x="650" y="815" width="60" height="30" as="geometry" />
        </mxCell>
      </root>
    </mxGraphModel>
  </diagram>
</mxfile>
